<?xml version="1.0" encoding="utf-8"?>
<!-- Generator: Adobe Illustrator 25.2.0, SVG Export Plug-In . SVG Version: 6.00 Build 0)  -->
<svg version="1.1"
	 id="svg2" xmlns:cc="http://creativecommons.org/ns#" xmlns:dc="http://purl.org/dc/elements/1.1/" xmlns:inkscape="http://www.inkscape.org/namespaces/inkscape" xmlns:rdf="http://www.w3.org/1999/02/22-rdf-syntax-ns#" xmlns:sodipodi="http://sodipodi.sourceforge.net/DTD/sodipodi-0.dtd" xmlns:svg="http://www.w3.org/2000/svg"
	 xmlns="http://www.w3.org/2000/svg" xmlns:xlink="http://www.w3.org/1999/xlink" x="0px" y="0px" viewBox="0 0 264.7 263.8"
	 style="enable-background:new 0 0 264.7 263.8;" xml:space="preserve">
<style type="text/css">
	.st0{fill:#ED6714;}
	.st1{fill:#FFFFFF;}
</style>
<sodipodi:namedview  bordercolor="#666666" borderopacity="1" gridtolerance="10" guidetolerance="10" id="namedview4" inkscape:pageopacity="0" inkscape:pageshadow="2" inkscape:window-height="480" inkscape:window-width="640" objecttolerance="10" pagecolor="#ffffff">
	</sodipodi:namedview>
<g>
	<path class="st0" d="M-99.6,189.9c0-38.7,0-77.2,0-115.9C-87.7-30-29-87.4,74.3-99.9c38.7,0,77.2,0,115.9,0
		C293.8-87.6,351.9-29.9,364,74c0,38.7,0,77.2,0,115.9c-11.9,104-69.8,162-173.8,173.8c-38.7,0-77.2,0-115.9,0
		C-29.7,351.8-87.7,293.9-99.6,189.9z"/>
</g>
<g id="g14">
	<g id="g24" transform="translate(157.3572,133.7065)">
		<path id="path26" class="st1" d="M120.8-90.9H80.5c-1.7,0-3.1,1.4-3.1,3.1V96.5c0,1.7,1.4,3.1,3.1,3.1h40.3c1.7,0,3.1-1.4,3.1-3.1
			V-87.7C123.9-89.4,122.5-90.9,120.8-90.9"/>
	</g>
	<g id="g28" transform="translate(99.9216,133.7065)">
		<path id="path30" class="st1" d="M40.4-90.9h-153.8c-1.7,0-3.1,1.4-3.1,3.1V96.5c0,1.7,1.4,3.1,3.1,3.1H-73c1.7,0,3.1-1.4,3.1-3.1
			V-47.9c0-1.7,1.4-3.1,3.1-3.1h86.9c24.5,0,31.4,18.7,31.4,30.7V96.5c0,1.7,1.4,3.1,3.1,3.1h40.3c1.7,0,3.1-1.4,3.1-3.1V-34.2
			c0-10.8-1.2-26.2-15.1-39.8C68.5-88.5,55.1-90.9,40.4-90.9"/>
	</g>
	<g id="g32" transform="translate(88.135,103.1352)">
		<path id="path34" class="st1" d="M24,13.1h-42.5c-1.7,0-3.1,1.4-3.1,3.1V127c0,1.7,1.4,3.1,3.1,3.1H24c1.7,0,3.1-1.4,3.1-3.1V16.2
			C27.1,14.5,25.6,13.1,24,13.1"/>
	</g>
</g>
</svg>
